<svg width="1740" height="446" viewBox="0 0 1740 446" fill="none" xmlns="http://www.w3.org/2000/svg">
<path d="M505.7 332.6C495.7 332.6 487.1 331.1 479.9 328.1C472.9 325.1 466.8 321 461.6 315.8V329H419.6V92.3H461.3V206.9C466.5 202.5 473.4 198.8 482 195.8C490.6 192.8 500.4 191.3 511.4 191.3C522.8 191.3 533.2 194 542.6 199.4C552 204.8 559.5 212.7 565.1 223.1C570.9 233.3 573.8 245.8 573.8 260.6C573.8 275.4 570.6 288.2 564.2 299C558 309.8 549.7 318.1 539.3 323.9C528.9 329.7 517.7 332.6 505.7 332.6ZM496.4 297.2C502.6 297.2 508.3 295.6 513.5 292.4C518.9 289.2 523.2 284.8 526.4 279.2C529.6 273.6 531.2 267.3 531.2 260.3C531.2 253.3 529.6 247.1 526.4 241.7C523.2 236.3 518.9 232.1 513.5 229.1C508.3 225.9 502.6 224.3 496.4 224.3C488.2 224.3 481 226.2 474.8 230C468.6 233.8 464.2 238.9 461.6 245.3V277.4C468.8 290.6 480.4 297.2 496.4 297.2ZM649.107 335.3C637.307 335.3 627.407 331.7 619.407 324.5C611.407 317.1 607.207 307.6 606.807 296V197.9H648.807V280.4C649.207 286.2 650.707 290.9 653.307 294.5C655.907 297.9 660.307 299.6 666.507 299.6C675.907 299.6 683.307 295.1 688.707 286.1C694.107 276.9 696.807 265.3 696.807 251.3V197.9H738.807V329H700.707L697.707 308C693.307 316.2 687.007 322.8 678.807 327.8C670.607 332.8 660.707 335.3 649.107 335.3ZM868.102 332.6C858.102 332.6 849.502 331.1 842.302 328.1C835.302 325.1 829.202 321 824.002 315.8V329H782.002V92.3H823.702V206.9C828.902 202.5 835.802 198.8 844.402 195.8C853.002 192.8 862.802 191.3 873.802 191.3C885.202 191.3 895.602 194 905.002 199.4C914.402 204.8 921.902 212.7 927.502 223.1C933.302 233.3 936.202 245.8 936.202 260.6C936.202 275.4 933.002 288.2 926.602 299C920.402 309.8 912.102 318.1 901.702 323.9C891.302 329.7 880.102 332.6 868.102 332.6ZM858.802 297.2C865.002 297.2 870.702 295.6 875.902 292.4C881.302 289.2 885.602 284.8 888.802 279.2C892.002 273.6 893.602 267.3 893.602 260.3C893.602 253.3 892.002 247.1 888.802 241.7C885.602 236.3 881.302 232.1 875.902 229.1C870.702 225.9 865.002 224.3 858.802 224.3C850.602 224.3 843.402 226.2 837.202 230C831.002 233.8 826.602 238.9 824.002 245.3V277.4C831.202 290.6 842.802 297.2 858.802 297.2ZM1055.31 332.6C1045.31 332.6 1036.71 331.1 1029.51 328.1C1022.51 325.1 1016.41 321 1011.21 315.8V329H969.209V92.3H1010.91V206.9C1016.11 202.5 1023.01 198.8 1031.61 195.8C1040.21 192.8 1050.01 191.3 1061.01 191.3C1072.41 191.3 1082.81 194 1092.21 199.4C1101.61 204.8 1109.11 212.7 1114.71 223.1C1120.51 233.3 1123.41 245.8 1123.41 260.6C1123.41 275.4 1120.21 288.2 1113.81 299C1107.61 309.8 1099.31 318.1 1088.91 323.9C1078.51 329.7 1067.31 332.6 1055.31 332.6ZM1046.01 297.2C1052.21 297.2 1057.91 295.6 1063.11 292.4C1068.51 289.2 1072.81 284.8 1076.01 279.2C1079.21 273.6 1080.81 267.3 1080.81 260.3C1080.81 253.3 1079.21 247.1 1076.01 241.7C1072.81 236.3 1068.51 232.1 1063.11 229.1C1057.91 225.9 1052.21 224.3 1046.01 224.3C1037.81 224.3 1030.61 226.2 1024.41 230C1018.21 233.8 1013.81 238.9 1011.21 245.3V277.4C1018.41 290.6 1030.01 297.2 1046.01 297.2ZM1156.42 92.3H1198.42V329H1156.42V92.3ZM1241.67 197.9H1283.67V329H1241.67V197.9ZM1240.77 151.4C1240.77 145.2 1243.17 140.1 1247.97 136.1C1252.97 132.1 1258.27 130.1 1263.87 130.1C1269.47 130.1 1274.57 132.1 1279.17 136.1C1283.97 140.1 1286.37 145.2 1286.37 151.4C1286.37 157.6 1283.97 162.7 1279.17 166.7C1274.57 170.5 1269.47 172.4 1263.87 172.4C1258.27 172.4 1252.97 170.5 1247.97 166.7C1243.17 162.7 1240.77 157.6 1240.77 151.4ZM1339.52 329V234.5H1317.32V197.3H1339.52V151.7C1339.52 134.5 1344.42 120.5 1354.22 109.7C1364.22 98.7 1378.62 93.2 1397.42 93.2C1403.02 93.2 1409.22 94.1 1416.02 95.9C1423.02 97.5 1429.12 100.2 1434.32 104L1416.62 134.3C1414.62 131.7 1412.22 130 1409.42 129.2C1406.82 128.2 1404.32 127.7 1401.92 127.7C1395.92 127.7 1391.02 129.7 1387.22 133.7C1383.42 137.7 1381.52 144.1 1381.52 152.9V197.3H1421.12V234.5H1381.52V329H1339.52ZM1467.8 392L1499.3 322.1L1438.7 197.9H1485.8L1520.3 275.3L1555.1 197.9H1592.9L1508.3 392H1467.8Z" fill="#0080FF"/>
<path d="M332 248.4C332 156.942 166 0 166 0C166 0 0 156.942 0 248.4C0 339.859 74.3207 414 166 414C257.68 414 332 339.859 332 248.4Z" fill="#0080FF"/>
<rect x="76" y="141" width="179" height="199.277" rx="44" fill="white"/>
<path d="M165.5 201.832C197.938 201.832 224.234 228.128 224.234 260.566C224.234 293.005 197.938 319.301 165.5 319.301C133.062 319.301 106.766 293.005 106.766 260.566C106.766 228.128 133.062 201.832 165.5 201.832ZM156.41 248.529C150.316 248.529 144.355 251.513 138.711 254.983C135.892 256.717 133.102 258.606 130.429 260.309C127.908 261.914 125.47 263.369 123.117 264.443L122.647 264.653L122.329 264.792L122.349 265.139C122.527 268.408 123.626 273.745 125.98 279.215C128.335 284.686 131.965 290.337 137.236 294.184L137.849 294.623C150.713 303.738 164.135 304.768 169.412 304.064C172.08 303.709 176.928 302.56 182.208 300.404C187.487 298.249 193.234 295.071 197.668 290.637L198.356 289.934C205.317 282.679 207.606 275.624 208.297 271.131L208.394 270.429C208.826 266.882 208.52 262.859 208.299 261.199L208.231 260.693L207.727 260.771C206.195 261.007 204.525 261.368 202.769 261.732C201.006 262.098 199.144 262.469 197.203 262.736C193.564 263.237 189.665 263.365 185.665 262.392L184.863 262.183C177.994 260.259 173.957 256.911 170.098 253.983C166.229 251.049 162.525 248.529 156.41 248.529Z" fill="#0080FF"/>
<line x1="113" y1="179" x2="216.579" y2="179" stroke="#0080FF" stroke-width="12" stroke-linecap="round"/>
</svg>
