<?xml version="1.0" encoding="UTF-8"?>
<svg xmlns="http://www.w3.org/2000/svg" xmlns:xlink="http://www.w3.org/1999/xlink" width="500px" height="128px" viewBox="0 0 499 128" version="1.1">
<g id="surface1">
<path style=" stroke:none;fill-rule:nonzero;fill:rgb(0%,50.196081%,100%);fill-opacity:1;" d="M 145.027344 95.453125 C 142.15625 95.453125 139.691406 95.023438 137.625 94.164062 C 135.617188 93.300781 133.871094 92.125 132.378906 90.632812 L 132.378906 94.421875 L 120.332031 94.421875 L 120.332031 26.488281 L 132.292969 26.488281 L 132.292969 59.378906 C 133.785156 58.117188 135.761719 57.054688 138.230469 56.195312 C 140.695312 55.332031 143.503906 54.902344 146.660156 54.902344 C 149.929688 54.902344 152.910156 55.675781 155.609375 57.226562 C 158.304688 58.777344 160.453125 61.042969 162.058594 64.027344 C 163.722656 66.957031 164.554688 70.542969 164.554688 74.792969 C 164.554688 79.039062 163.636719 82.710938 161.800781 85.8125 C 160.023438 88.910156 157.644531 91.292969 154.660156 92.957031 C 151.679688 94.621094 148.46875 95.453125 145.027344 95.453125 Z M 142.359375 85.296875 C 144.136719 85.296875 145.769531 84.835938 147.261719 83.917969 C 148.8125 83 150.042969 81.734375 150.960938 80.128906 C 151.878906 78.523438 152.339844 76.714844 152.339844 74.703125 C 152.339844 72.695312 151.878906 70.917969 150.960938 69.367188 C 150.042969 67.816406 148.8125 66.613281 147.261719 65.75 C 145.769531 64.832031 144.136719 64.375 142.359375 64.375 C 140.007812 64.375 137.941406 64.917969 136.164062 66.007812 C 134.386719 67.097656 133.125 68.5625 132.378906 70.398438 L 132.378906 79.613281 C 134.441406 83.402344 137.769531 85.296875 142.359375 85.296875 Z M 186.152344 96.230469 C 182.769531 96.230469 179.929688 95.195312 177.632812 93.128906 C 175.339844 91.007812 174.136719 88.28125 174.019531 84.949219 L 174.019531 56.796875 L 186.066406 56.796875 L 186.066406 80.472656 C 186.179688 82.136719 186.609375 83.488281 187.355469 84.519531 C 188.101562 85.496094 189.363281 85.984375 191.140625 85.984375 C 193.835938 85.984375 195.960938 84.691406 197.507812 82.109375 C 199.058594 79.46875 199.832031 76.140625 199.832031 72.121094 L 199.832031 56.796875 L 211.875 56.796875 L 211.875 94.421875 L 200.949219 94.421875 L 200.089844 88.394531 C 198.828125 90.746094 197.019531 92.640625 194.667969 94.078125 C 192.316406 95.511719 189.480469 96.230469 186.152344 96.230469 Z M 248.957031 95.453125 C 246.085938 95.453125 243.621094 95.023438 241.558594 94.164062 C 239.550781 93.300781 237.800781 92.125 236.308594 90.632812 L 236.308594 94.421875 L 224.265625 94.421875 L 224.265625 26.488281 L 236.222656 26.488281 L 236.222656 59.378906 C 237.714844 58.117188 239.691406 57.054688 242.160156 56.195312 C 244.625 55.332031 247.4375 54.902344 250.589844 54.902344 C 253.859375 54.902344 256.84375 55.675781 259.539062 57.226562 C 262.234375 58.777344 264.382812 61.042969 265.992188 64.027344 C 267.652344 66.957031 268.484375 70.542969 268.484375 74.792969 C 268.484375 79.039062 267.566406 82.710938 265.730469 85.8125 C 263.953125 88.910156 261.574219 91.292969 258.589844 92.957031 C 255.609375 94.621094 252.398438 95.453125 248.957031 95.453125 Z M 246.289062 85.296875 C 248.066406 85.296875 249.703125 84.835938 251.191406 83.917969 C 252.742188 83 253.972656 81.734375 254.890625 80.128906 C 255.808594 78.523438 256.269531 76.714844 256.269531 74.703125 C 256.269531 72.695312 255.808594 70.917969 254.890625 69.367188 C 253.972656 67.816406 252.742188 66.613281 251.191406 65.75 C 249.703125 64.832031 248.066406 64.375 246.289062 64.375 C 243.9375 64.375 241.871094 64.917969 240.09375 66.007812 C 238.316406 67.097656 237.054688 68.5625 236.308594 70.398438 L 236.308594 79.613281 C 238.375 83.402344 241.699219 85.296875 246.289062 85.296875 Z M 302.644531 95.453125 C 299.777344 95.453125 297.308594 95.023438 295.246094 94.164062 C 293.238281 93.300781 291.488281 92.125 289.996094 90.632812 L 289.996094 94.421875 L 277.953125 94.421875 L 277.953125 26.488281 L 289.910156 26.488281 L 289.910156 59.378906 C 291.402344 58.117188 293.378906 57.054688 295.847656 56.195312 C 298.3125 55.332031 301.125 54.902344 304.277344 54.902344 C 307.546875 54.902344 310.53125 55.675781 313.226562 57.226562 C 315.921875 58.777344 318.074219 61.042969 319.679688 64.027344 C 321.339844 66.957031 322.171875 70.542969 322.171875 74.792969 C 322.171875 79.039062 321.253906 82.710938 319.421875 85.8125 C 317.640625 88.910156 315.261719 91.292969 312.28125 92.957031 C 309.296875 94.621094 306.085938 95.453125 302.644531 95.453125 Z M 299.976562 85.296875 C 301.753906 85.296875 303.390625 84.835938 304.878906 83.917969 C 306.429688 83 307.664062 81.734375 308.578125 80.128906 C 309.496094 78.523438 309.957031 76.714844 309.957031 74.703125 C 309.957031 72.695312 309.496094 70.917969 308.578125 69.367188 C 307.664062 67.816406 306.429688 66.613281 304.878906 65.75 C 303.390625 64.832031 301.753906 64.375 299.976562 64.375 C 297.625 64.375 295.558594 64.917969 293.78125 66.007812 C 292.003906 67.097656 290.742188 68.5625 289.996094 70.398438 L 289.996094 79.613281 C 292.0625 83.402344 295.386719 85.296875 299.976562 85.296875 Z M 331.640625 26.488281 L 343.683594 26.488281 L 343.683594 94.421875 L 331.640625 94.421875 Z M 356.089844 56.796875 L 368.132812 56.796875 L 368.132812 94.421875 L 356.089844 94.421875 Z M 355.828125 43.449219 C 355.828125 41.671875 356.519531 40.207031 357.894531 39.058594 C 359.328125 37.910156 360.847656 37.339844 362.453125 37.339844 C 364.0625 37.339844 365.523438 37.910156 366.84375 39.058594 C 368.21875 40.207031 368.90625 41.671875 368.90625 43.449219 C 368.90625 45.230469 368.21875 46.695312 366.84375 47.84375 C 365.523438 48.933594 364.0625 49.476562 362.453125 49.476562 C 360.847656 49.476562 359.328125 48.933594 357.894531 47.84375 C 356.519531 46.695312 355.828125 45.230469 355.828125 43.449219 Z M 384.148438 94.421875 L 384.148438 67.300781 L 377.78125 67.300781 L 377.78125 56.625 L 384.148438 56.625 L 384.148438 43.539062 C 384.148438 38.601562 385.554688 34.582031 388.367188 31.484375 C 391.234375 28.328125 395.363281 26.746094 400.753906 26.746094 C 402.359375 26.746094 404.136719 27.007812 406.089844 27.523438 C 408.097656 27.980469 409.84375 28.757812 411.335938 29.847656 L 406.261719 38.542969 C 405.6875 37.796875 405 37.308594 404.195312 37.078125 C 403.449219 36.792969 402.734375 36.648438 402.042969 36.648438 C 400.324219 36.648438 398.917969 37.222656 397.828125 38.371094 C 396.738281 39.519531 396.195312 41.355469 396.195312 43.882812 L 396.195312 56.625 L 407.550781 56.625 L 407.550781 67.300781 L 396.195312 67.300781 L 396.195312 94.421875 Z M 420.9375 112.503906 L 429.972656 92.441406 L 412.59375 56.796875 L 426.101562 56.796875 L 435.992188 79.011719 L 445.972656 56.796875 L 456.8125 56.796875 L 432.550781 112.503906 Z M 420.9375 112.503906 "/>
<path style=" stroke:none;fill-rule:nonzero;fill:rgb(0%,50.196081%,100%);fill-opacity:1;" d="M 95.210938 71.289062 C 95.210938 45.042969 47.605469 0 47.605469 0 C 47.605469 0 0 45.042969 0 71.289062 C 0 97.539062 21.3125 118.816406 47.605469 118.816406 C 73.898438 118.816406 95.210938 97.539062 95.210938 71.289062 Z M 95.210938 71.289062 "/>
<path style=" stroke:none;fill-rule:nonzero;fill:rgb(100%,100%,100%);fill-opacity:1;" d="M 34.414062 40.464844 L 60.511719 40.464844 C 67.480469 40.464844 73.128906 46.121094 73.128906 53.09375 L 73.128906 85.03125 C 73.128906 92.003906 67.480469 97.65625 60.511719 97.65625 L 34.414062 97.65625 C 27.445312 97.65625 21.796875 92.003906 21.796875 85.03125 L 21.796875 53.09375 C 21.796875 46.121094 27.445312 40.464844 34.414062 40.464844 Z M 34.414062 40.464844 "/>
<path style=" stroke:none;fill-rule:nonzero;fill:rgb(0%,50.196081%,100%);fill-opacity:1;" d="M 47.460938 57.925781 C 56.765625 57.925781 64.304688 65.472656 64.304688 74.78125 C 64.304688 84.089844 56.765625 91.636719 47.460938 91.636719 C 38.160156 91.636719 30.617188 84.089844 30.617188 74.78125 C 30.617188 65.472656 38.160156 57.925781 47.460938 57.925781 Z M 44.855469 71.328125 C 43.109375 71.328125 41.398438 72.183594 39.78125 73.179688 C 38.972656 73.675781 38.171875 74.21875 37.40625 74.707031 C 36.683594 75.167969 35.984375 75.585938 35.308594 75.894531 L 35.171875 75.953125 L 35.082031 75.992188 L 35.085938 76.09375 C 35.136719 77.03125 35.453125 78.5625 36.128906 80.132812 C 36.804688 81.703125 37.84375 83.324219 39.355469 84.429688 L 39.53125 84.554688 C 43.222656 87.171875 47.070312 87.46875 48.585938 87.265625 C 49.347656 87.164062 50.738281 86.832031 52.253906 86.214844 C 53.769531 85.597656 55.414062 84.683594 56.6875 83.410156 L 56.886719 83.210938 C 58.882812 81.128906 59.539062 79.101562 59.734375 77.8125 L 59.761719 77.613281 C 59.886719 76.59375 59.800781 75.4375 59.734375 74.964844 L 59.71875 74.816406 L 59.574219 74.839844 C 59.132812 74.90625 58.652344 75.011719 58.152344 75.117188 C 57.644531 75.222656 57.109375 75.328125 56.554688 75.402344 C 55.511719 75.546875 54.390625 75.585938 53.246094 75.304688 L 53.015625 75.246094 C 51.046875 74.691406 49.886719 73.730469 48.78125 72.890625 C 47.671875 72.050781 46.609375 71.328125 44.855469 71.328125 Z M 44.855469 71.328125 "/>
<path style="fill:none;stroke-width:12;stroke-linecap:round;stroke-linejoin:miter;stroke:rgb(0%,50.196081%,100%);stroke-opacity:1;stroke-miterlimit:4;" d="M 112.999749 178.996155 L 216.573773 178.996155 " transform="matrix(0.286782,0,0,0.286996,0,0)"/>
</g>
</svg>
