<svg width="724" height="724" viewBox="0 0 724 724" fill="none" xmlns="http://www.w3.org/2000/svg">
<circle cx="362" cy="362" r="362" fill="white"/>
<path d="M566.576 411.708C566.576 301.359 366.288 112 366.288 112C366.288 112 166 301.359 166 411.708C166 522.058 255.672 611.514 366.288 611.514C476.905 611.514 566.576 522.058 566.576 411.708Z" fill="#0080FF"/>
<rect x="257.698" y="282.124" width="215.973" height="240.439" rx="44" fill="white"/>
<path d="M365.685 355.521C404.823 355.521 436.551 387.249 436.551 426.388C436.551 465.526 404.823 497.254 365.685 497.254C326.546 497.254 294.818 465.526 294.818 426.388C294.818 387.25 326.546 355.522 365.685 355.521ZM354.718 411.968C347.396 411.968 340.225 415.553 333.417 419.74C330.016 421.832 326.654 424.107 323.425 426.164C320.18 428.231 317.043 430.094 314.022 431.413L313.704 431.553L313.724 431.898L313.776 432.665C314.109 436.634 315.438 442.67 318.098 448.848C320.934 455.438 325.305 462.239 331.645 466.865L332.382 467.396C347.88 478.376 364.048 479.613 370.392 478.768L371.023 478.676C374.333 478.162 379.841 476.794 385.806 474.358C392.168 471.76 399.088 467.933 404.425 462.597L405.254 461.75C413.636 453.014 416.389 444.52 417.22 439.118L417.336 438.273C417.855 434.007 417.488 429.164 417.222 427.165L417.154 426.66L416.649 426.737C414.805 427.021 412.794 427.456 410.673 427.896C408.545 428.337 406.296 428.787 403.95 429.109C399.406 429.734 394.518 429.879 389.506 428.568L389.021 428.438C380.71 426.11 375.825 422.058 371.17 418.527C366.506 414.99 362.06 411.968 354.718 411.968Z" fill="#0080FF"/>
<line x1="312.5" y1="329.226" x2="411.079" y2="329.226" stroke="#0D92F4" stroke-width="17" stroke-linecap="round"/>
</svg>
