<svg width="1438" height="612" viewBox="0 0 1438 612" fill="none" xmlns="http://www.w3.org/2000/svg">
<g clip-path="url(#clip0_75_57)">
<path d="M461.596 488.238H396.007V603.336H236.985V488.238H0V370.665L247.504 8.66309H396.007V368.19H461.596V488.238ZM236.985 368.19V298.883C236.985 285.889 237.604 268.562 238.223 246.285C239.46 224.008 240.079 212.869 240.698 211.632H236.367C227.085 232.671 216.566 251.854 204.81 270.418L139.221 368.19H236.985Z" fill="#0080FF"/>
<path d="M933.091 306.928C933.091 412.125 915.147 489.476 880.496 538.362C845.227 587.248 791.395 612 718.381 612C647.223 612 594.01 586.629 557.503 535.268C521.615 483.907 503.671 407.794 503.671 306.928C503.671 201.112 520.996 123.761 556.884 74.2568C592.154 24.7523 645.986 0 719 0C789.538 0 843.371 25.9899 879.259 77.3509C915.147 128.712 933.091 204.825 933.091 306.928ZM663.311 306.928C663.311 374.378 667.642 420.789 675.686 445.541C684.349 470.912 697.962 483.288 717.762 483.288C737.562 483.288 751.794 470.293 760.457 444.303C768.501 418.313 772.832 372.522 772.832 306.928C772.832 240.716 768.501 194.924 760.457 168.315C751.794 141.707 738.181 128.712 718.381 128.712C698.581 128.712 684.349 141.707 676.305 167.078C667.643 192.449 663.311 238.859 663.311 306.928Z" fill="#0080FF"/>
<path d="M1438 488.238H1372.41V603.336H1213.39V488.238H976.404V370.665L1223.91 8.66309H1372.41V368.19H1438V488.238ZM1214.01 368.19V298.883C1214.01 285.889 1214.63 268.562 1215.25 246.285C1216.48 224.008 1217.1 212.869 1217.72 211.632H1213.39C1204.11 232.671 1193.59 251.854 1181.83 270.418L1115.63 368.809H1214.01V368.19Z" fill="#0080FF"/>
</g>
<g clip-path="url(#clip1_75_57)">
<path d="M874.89 322.914C923.692 322.914 963.254 283.357 963.254 234.561C963.254 185.766 923.692 146.209 874.89 146.209C826.088 146.209 786.526 185.766 786.526 234.561C786.526 283.357 826.088 322.914 874.89 322.914Z" fill="white"/>
<path d="M584.171 322.914C632.973 322.914 672.535 283.357 672.535 234.561C672.535 185.766 632.973 146.209 584.171 146.209C535.369 146.209 495.807 185.766 495.807 234.561C495.807 283.357 535.369 322.914 584.171 322.914Z" fill="white"/>
<path d="M636.238 163.253C645.283 177.167 650.502 193.632 650.502 211.488C650.502 260.302 610.958 299.84 562.138 299.84C542.656 299.84 524.682 293.463 510.07 282.796C525.841 307.029 553.093 322.914 584.171 322.914C632.991 322.914 672.535 283.376 672.535 234.562C672.419 205.343 658.155 179.37 636.238 163.253Z" fill="#EFEFEF"/>
<path d="M926.842 163.253C935.887 177.167 941.105 193.632 941.105 211.488C941.105 260.302 901.562 299.84 852.741 299.84C833.26 299.84 815.285 293.463 800.674 282.796C816.445 307.029 843.696 322.914 874.774 322.914C923.595 322.914 963.138 283.376 963.138 234.562C963.138 205.343 948.875 179.37 926.842 163.253Z" fill="#EFEFEF"/>
<path d="M584.171 326.972C533.263 326.972 491.748 285.463 491.748 234.562C491.748 183.66 533.263 142.151 584.171 142.151C635.079 142.151 676.593 183.66 676.593 234.562C676.593 285.463 635.195 326.972 584.171 326.972ZM584.171 150.267C537.669 150.267 499.865 188.066 499.865 234.562C499.865 281.057 537.669 318.856 584.171 318.856C630.672 318.856 668.476 281.057 668.476 234.562C668.476 188.066 630.672 150.267 584.171 150.267Z" fill="#231F20"/>
<path d="M581.851 257.983C598.055 257.983 611.19 244.85 611.19 228.648C611.19 212.447 598.055 199.313 581.851 199.313C565.648 199.313 552.513 212.447 552.513 228.648C552.513 244.85 565.648 257.983 581.851 257.983Z" fill="#231F20"/>
<path d="M574.662 235.373C581.322 235.373 586.722 229.974 586.722 223.314C586.722 216.655 581.322 211.256 574.662 211.256C568.001 211.256 562.602 216.655 562.602 223.314C562.602 229.974 568.001 235.373 574.662 235.373Z" fill="white"/>
<path d="M874.89 257.983C891.094 257.983 904.229 244.85 904.229 228.648C904.229 212.447 891.094 199.313 874.89 199.313C858.687 199.313 845.552 212.447 845.552 228.648C845.552 244.85 858.687 257.983 874.89 257.983Z" fill="#231F20"/>
<path d="M867.701 235.373C874.361 235.373 879.761 229.974 879.761 223.314C879.761 216.655 874.361 211.256 867.701 211.256C861.04 211.256 855.641 216.655 855.641 223.314C855.641 229.974 861.04 235.373 867.701 235.373Z" fill="white"/>
<path d="M874.89 326.972C823.983 326.972 782.468 285.463 782.468 234.562C782.468 183.66 823.983 142.151 874.89 142.151C925.798 142.151 967.313 183.66 967.313 234.562C967.313 285.463 925.914 326.972 874.89 326.972ZM874.89 150.267C828.389 150.267 790.585 188.066 790.585 234.562C790.585 281.057 828.389 318.856 874.89 318.856C921.392 318.856 959.196 281.057 959.196 234.562C959.196 188.066 921.392 150.267 874.89 150.267Z" fill="#231F20"/>
<path d="M450.349 127.077C468.207 138.672 467.743 105.627 500.793 82.7853C528.276 63.7698 554.136 74.6689 554.252 59.0159C554.368 43.3629 522.942 33.3913 481.427 58.668C450.465 77.4516 429.592 113.512 450.349 127.077Z" fill="#231F20"/>
<path d="M988.187 118.266C969.981 129.281 971.488 96.3514 939.25 72.3501C912.347 52.407 886.255 62.4945 886.603 46.8415C886.951 31.1885 918.725 22.2605 959.428 48.8126C989.694 68.7557 1009.29 105.395 988.187 118.266Z" fill="#231F20"/>
<path d="M741.533 530.114C674.506 530.23 598.202 527.679 599.478 488.72C600.753 449.761 667.2 358.858 741.533 363.148C815.865 367.554 896.575 446.515 881.964 490.343C867.353 534.288 777.945 530.114 741.533 530.114Z" fill="#231F20"/>
<path d="M679.377 575.913C705.932 567.333 734.691 565.826 762.058 571.391C769.944 573.014 777.597 575.217 785.135 577.884C786.527 578.348 788.15 577.305 788.498 576.029C788.962 574.522 788.034 573.246 786.643 572.667C759.507 562.811 730.052 560.376 701.641 565.014C693.64 566.289 685.755 568.261 678.101 570.695C674.622 571.739 676.014 576.957 679.377 575.913Z" fill="#231F20"/>
</g>
<defs>
<clipPath id="clip0_75_57">
<rect width="1438" height="612" fill="white"/>
</clipPath>
<clipPath id="clip1_75_57">
<rect width="555" height="546" fill="white" transform="translate(442 32)"/>
</clipPath>
</defs>
</svg>
